<svg width="245" height="217" viewBox="0 0 245 217" fill="none" xmlns="http://www.w3.org/2000/svg">
<path d="M35.8852 199.972C83.7227 222.676 161.282 222.676 209.12 199.972C256.957 177.269 256.963 140.467 209.12 117.764C161.277 95.061 83.7227 95.0662 35.8795 117.764C-11.9636 140.462 -11.9579 177.264 35.8852 199.972Z" fill="#F5F5F5"/>
<path d="M96.3308 180.256C109.223 185.838 130.121 185.838 142.985 180.256C155.849 174.675 155.877 165.631 142.985 160.049C130.092 154.468 109.2 154.468 96.3308 160.049C83.4611 165.631 83.4156 174.68 96.3308 180.256Z" fill="#EBEBEB"/>
<path d="M207.936 166.442L161.851 190.603C161.469 190.779 161.047 190.87 160.619 190.87C160.191 190.87 159.769 190.779 159.387 190.603L101.781 160.38C101.632 160.335 101.503 160.248 101.412 160.132C101.321 160.016 101.271 159.877 101.271 159.734C101.271 159.592 101.321 159.453 101.412 159.337C101.503 159.221 101.632 159.134 101.781 159.088L147.866 134.928C148.248 134.752 148.67 134.66 149.098 134.66C149.526 134.66 149.948 134.752 150.33 134.928L207.953 165.15C208.101 165.198 208.229 165.286 208.319 165.403C208.409 165.52 208.456 165.659 208.454 165.802C208.453 165.945 208.402 166.083 208.309 166.198C208.216 166.313 208.085 166.398 207.936 166.442Z" fill="#EBEBEB"/>
<path d="M220.761 33.6286V44.7244C220.761 44.7244 215.743 46.8588 206.537 46.8588C197.331 46.8588 192.313 44.7193 192.313 44.7193V33.8664L201.917 9.1786C201.786 9.95381 202.287 10.729 203.413 11.3388C204.238 11.8009 205.174 12.0713 206.141 12.1263C207.107 12.1813 208.074 12.0191 208.955 11.6541C209.203 11.5657 209.442 11.4603 209.672 11.3388C210.867 10.7135 211.379 9.85561 211.146 9.03906L220.761 33.6286Z" fill="#F5F5F5"/>
<path opacity="0.5" d="M220.761 33.6286V44.7244C220.761 44.7244 215.743 46.8588 206.537 46.8588C197.331 46.8588 192.313 44.7193 192.313 44.7193V33.8664L201.917 9.1786C201.786 9.95381 202.287 10.729 203.413 11.3388C204.238 11.8009 205.174 12.0713 206.141 12.1263C207.107 12.1813 208.074 12.0191 208.955 11.6541C209.203 11.5657 209.442 11.4603 209.672 11.3388C210.867 10.7135 211.379 9.85561 211.146 9.03906L220.761 33.6286Z" fill="white"/>
<path d="M219.658 111.408C218.833 112.395 217.788 113.212 216.591 113.806C211.027 116.726 202.009 116.726 196.45 113.806C195.251 113.212 194.204 112.395 193.378 111.408C192.736 110.632 192.356 109.704 192.285 108.736V114.498C192.388 116.338 193.77 118.163 196.45 119.568C202.009 122.483 211.027 122.483 216.591 119.568C219.367 118.111 220.761 116.199 220.761 114.287V108.529C220.74 109.571 220.353 110.58 219.658 111.408Z" fill="#F5F5F5"/>
<path d="M219.658 105.645C218.833 106.632 217.788 107.449 216.591 108.043C216.261 108.214 215.925 108.374 215.578 108.524C210.327 110.798 202.708 110.798 197.463 108.524C197.116 108.374 196.774 108.214 196.45 108.043C195.251 107.45 194.204 106.633 193.378 105.645C192.736 104.872 192.356 103.945 192.285 102.979V108.736C192.356 109.704 192.736 110.632 193.378 111.408C194.204 112.395 195.251 113.212 196.45 113.806C202.009 116.726 211.027 116.726 216.591 113.806C217.788 113.212 218.833 112.395 219.658 111.408C220.353 110.579 220.74 109.571 220.761 108.529V102.767C220.741 103.809 220.354 104.817 219.658 105.645Z" fill="#EBEBEB"/>
<path d="M219.658 99.8832C218.832 100.871 217.787 101.689 216.591 102.286C216.261 102.457 215.925 102.612 215.578 102.767C210.327 105.041 202.708 105.041 197.463 102.767C197.116 102.612 196.774 102.457 196.45 102.286C195.252 101.689 194.205 100.871 193.378 99.8832C192.736 99.1097 192.356 98.183 192.285 97.2165V102.979C192.356 103.945 192.736 104.872 193.378 105.646C194.204 106.633 195.251 107.45 196.45 108.044C196.774 108.214 197.116 108.374 197.463 108.524C202.708 110.798 210.327 110.798 215.578 108.524C215.925 108.374 216.261 108.214 216.591 108.044C217.788 107.45 218.833 106.632 219.658 105.646C220.354 104.817 220.741 103.809 220.761 102.767V97.0046C220.741 98.0466 220.355 99.0554 219.658 99.8832Z" fill="#F5F5F5"/>
<path d="M192.285 33.8455V97.2161C192.356 98.1825 192.736 99.1092 193.378 99.8828C194.205 100.87 195.252 101.689 196.45 102.286C196.774 102.456 197.116 102.612 197.463 102.767C198.838 103.349 200.286 103.777 201.775 104.043L199.198 37.2564L192.285 33.8455Z" fill="#F5F5F5"/>
<path d="M213.843 37.2566L211.26 104.043C212.749 103.778 214.197 103.349 215.572 102.767C215.919 102.612 216.255 102.457 216.585 102.286C217.781 101.689 218.826 100.87 219.652 99.883C220.349 99.0552 220.735 98.0464 220.755 97.0044V33.6287L213.843 37.2566Z" fill="#F5F5F5"/>
<path d="M192.285 33.8455V97.2161C192.356 98.1825 192.736 99.1092 193.378 99.8828C194.205 100.87 195.252 101.689 196.45 102.286C196.774 102.456 197.116 102.612 197.463 102.767C198.838 103.349 200.286 103.777 201.775 104.043L199.198 37.2564L192.285 33.8455Z" fill="#E0E0E0"/>
<path d="M213.843 37.2566L211.26 104.043C212.749 103.778 214.197 103.349 215.572 102.767C215.919 102.612 216.255 102.457 216.585 102.286C217.781 101.689 218.826 100.87 219.652 99.883C220.349 99.0552 220.735 98.0464 220.755 97.0044V33.6287L213.843 37.2566Z" fill="#E0E0E0"/>
<path d="M199.197 37.2566V103.408C200.04 103.672 200.901 103.886 201.775 104.048C203.337 104.335 204.926 104.479 206.52 104.477C208.113 104.476 209.702 104.333 211.265 104.048C212.138 103.886 212.999 103.672 213.842 103.408V37.2566H199.197Z" fill="#EBEBEB"/>
<path d="M209.649 11.313C209.419 11.4345 209.18 11.5399 208.932 11.6282C208.051 11.9932 207.085 12.1554 206.118 12.1004C205.152 12.0455 204.215 11.775 203.391 11.313C202.253 10.7238 201.763 9.92794 201.894 9.15274L205.171 0.816678C205.279 0.572914 205.466 0.364479 205.707 0.21875C205.947 0.0730205 206.231 -0.00318986 206.52 0.000125428C206.81 -0.00352267 207.094 0.0724846 207.336 0.21819C207.578 0.363895 207.765 0.572503 207.874 0.816678L211.117 9.00286C211.339 9.81941 210.844 10.6876 209.649 11.313Z" fill="#E0E0E0"/>
<path d="M216.59 119.568C211.811 122.074 204.483 122.421 198.987 120.601C198.68 120.505 198.378 120.396 198.082 120.276L197.673 120.121C197.246 119.945 196.836 119.754 196.45 119.552C193.77 118.147 192.387 116.322 192.285 114.483V130.183C192.182 132.168 193.565 134.168 196.45 135.677C196.791 135.858 197.149 136.028 197.519 136.193C197.656 136.256 197.804 136.302 197.94 136.359C198.179 136.452 198.412 136.55 198.657 136.633C198.902 136.715 199.038 136.757 199.226 136.814C199.414 136.871 199.63 136.948 199.841 137.005C200.051 137.062 200.307 137.124 200.54 137.181C200.774 137.237 200.899 137.274 201.081 137.31C201.263 137.346 201.621 137.418 201.894 137.465C202.048 137.465 202.202 137.527 202.355 137.548C202.663 137.599 202.975 137.635 203.288 137.677L203.658 137.723C204.005 137.759 204.352 137.785 204.699 137.806H204.972C205.354 137.832 205.735 137.842 206.11 137.847H206.292C206.702 137.847 207.112 137.847 207.521 137.847H207.612C208.045 137.847 208.477 137.801 208.91 137.765C211.444 137.569 213.912 136.927 216.175 135.873C216.3 135.811 216.431 135.759 216.556 135.692C219.333 134.235 220.727 132.323 220.727 130.41V114.286C220.761 116.198 219.367 118.11 216.59 119.568Z" fill="#E0E0E0"/>
<path d="M44.8293 128.726C43.185 128.349 34.4061 123.811 33.5128 123.258C32.6196 122.705 30.8558 121.563 30.8558 119.594C30.8558 117.852 31.055 101.428 32.6253 93.4953C33.1412 91.0275 34.2073 88.6817 35.7581 86.602C37.3089 84.5223 39.3117 82.7527 41.6432 81.402C47.1051 78.3271 52.5955 76.0996 57.2211 77.8464C61.8467 79.5932 66.0683 82.8026 67.8889 86.6786C69.7096 90.5547 70.9556 98.3171 71.0864 101.32C71.2173 104.322 71.0864 114.617 71.0864 115.532C71.0864 116.447 70.9044 117.635 65.4823 120.7C60.0601 123.765 52.5727 127.418 50.2571 128.364C48.5347 129 46.6354 129.127 44.8293 128.726Z" fill="#37474F"/>
<path d="M43.4752 83.5364C42.9745 83.7948 41.5294 83.1488 41.3132 82.8232C41.097 82.4976 41.0401 79.681 42.1211 78.1254C43.2021 76.5698 49.9442 73.7016 51.6112 73.9135C52.2356 74.0058 52.8327 74.2129 53.3658 74.5222C53.899 74.8314 54.3571 75.2363 54.712 75.7119C54.9168 76.1099 55.1444 78.7301 54.712 79.2676C54.2796 79.805 52.7378 78.9781 52.6012 78.7508C52.4647 78.5234 53.1076 76.606 52.0323 76.2081C51.0423 75.8463 46.3427 77.6603 44.4311 79.1177C43.6004 79.7534 43.6402 81.3296 43.68 82.11C43.7199 82.8904 43.7256 83.402 43.4752 83.5364Z" fill="#455A64"/>
<path d="M42.1212 102.028C43.0884 93.4952 44.8294 88.5132 54.018 84.7974C63.2066 81.0816 66.7739 84.2444 68.0768 87.092C69.7836 91.0817 70.9614 98.4204 71.0865 101.32C71.2174 104.322 71.0865 114.617 71.0865 115.532C71.0865 116.447 70.9045 117.635 65.4824 120.7C60.0602 123.764 52.5728 127.418 50.2572 128.364C48.5366 129.005 46.6373 129.137 44.8294 128.741C44.4663 128.641 44.1124 128.515 43.7712 128.364C40.9093 125.025 41.2336 109.821 42.1212 102.028Z" fill="#455A64"/>
<path d="M63.5425 81.464C61.1415 80.1874 57.2043 79.3451 51.4238 81.6862C41.0916 85.8671 38.4688 91.1024 37.4276 100.291C37.2398 101.976 36.961 103.981 36.8586 106.136L36.0052 105.666C36.1247 103.34 36.375 101.351 36.5741 99.5521C37.712 90.2961 40.7673 85.1798 50.6386 81.1849C56.1063 78.973 59.6963 79.2624 62.0746 80.3528C62.5853 80.6992 63.0753 81.0701 63.5425 81.464Z" fill="#263238"/>
<path d="M63.9008 81.7018C61.5055 80.4253 57.5627 79.5829 51.7878 81.924C41.45 86.105 38.8271 91.3402 37.7859 100.529C37.5982 102.214 37.3194 104.219 37.217 106.374L36.3635 105.904C36.483 103.578 36.7333 101.588 36.9325 99.79C38.0704 90.534 41.1257 85.4125 50.997 81.4227C56.4646 79.2108 60.1514 79.5778 62.5296 80.663C63.0078 80.9856 63.4656 81.3324 63.9008 81.7018Z" fill="#455A64"/>
<path d="M60.5554 89.8155L57.4319 88.1928C57.2778 88.1142 57.0957 88.094 56.9253 88.1366C56.7549 88.1791 56.6098 88.2811 56.5216 88.4202L53.3184 93.4797C53.2291 93.6189 53.2041 93.7846 53.2489 93.9405C53.2937 94.0964 53.4046 94.2299 53.5573 94.3118L56.641 95.9449C56.7943 96.0259 56.9767 96.0486 57.1483 96.0079C57.32 95.9673 57.4669 95.8666 57.5571 95.7278L60.8001 90.6373C60.8446 90.569 60.8735 90.4933 60.8853 90.4147C60.897 90.3361 60.8913 90.2561 60.8685 90.1795C60.8457 90.103 60.8063 90.0313 60.7525 89.9688C60.6987 89.9063 60.6317 89.8542 60.5554 89.8155Z" fill="#263238"/>
<path d="M57.2042 95.3662L60.2822 90.5444C60.3044 90.51 60.3187 90.4718 60.3245 90.4322C60.3302 90.3926 60.3271 90.3523 60.3154 90.3138C60.3038 90.2753 60.2838 90.2393 60.2565 90.2079C60.2293 90.1765 60.1955 90.1503 60.157 90.131L57.3123 88.6633C57.2352 88.624 57.1442 88.6139 57.059 88.6352C56.9738 88.6565 56.9012 88.7074 56.8571 88.777L53.8132 93.5781C53.77 93.6481 53.7588 93.7308 53.7823 93.8082C53.8057 93.8856 53.8618 93.9515 53.9384 93.9915L56.7319 95.4748C56.7705 95.4969 56.8135 95.5117 56.8585 95.5182C56.9035 95.5247 56.9495 95.5228 56.9937 95.5127C57.0379 95.5025 57.0794 95.4843 57.1155 95.4591C57.1517 95.434 57.1819 95.4023 57.2042 95.3662Z" fill="#455A64"/>
<path d="M57.8642 93.061C57.9462 93.016 58.0156 92.9542 58.067 92.8807C58.1183 92.8072 58.1502 92.7238 58.1601 92.6372V90.3271C58.1601 90.1773 58.0292 90.1307 57.8642 90.2134C57.7822 90.2585 57.7128 90.3202 57.6615 90.3937C57.6101 90.4673 57.5783 90.5506 57.5684 90.6372V92.9473C57.5684 93.0972 57.6992 93.1437 57.8642 93.061Z" fill="#37474F"/>
<path d="M56.2143 93.9295C56.2962 93.8831 56.3653 93.8203 56.4166 93.746C56.4678 93.6717 56.4998 93.5878 56.5102 93.5006V91.1956C56.5102 91.0458 56.3736 90.9941 56.2143 91.0819C56.1317 91.1264 56.0618 91.1879 56.0104 91.2616C55.959 91.3352 55.9275 91.4189 55.9185 91.5057V93.8158C55.9355 93.9605 56.0493 94.0122 56.2143 93.9295Z" fill="#37474F"/>
<path d="M46.3769 109.243C46.3769 109.243 47.9244 110.4 49.0396 114.762C50.1547 119.124 50.8261 124.618 49.6085 125.279C48.391 125.941 46.6329 124.556 46.1948 124.08C45.2959 123.103 45.5178 112.736 46.3769 109.243Z" fill="#263238"/>
<path d="M46.3766 109.243C46.3766 109.243 47.9242 110.4 49.0393 114.762C50.1545 119.124 50.8259 124.617 49.6083 125.279L68.3837 115.222C69.6127 114.56 69.9142 108.788 68.8047 104.426C68.0708 101.558 66.7224 100.193 65.8917 99.5938C65.7011 99.4601 65.4709 99.3812 65.2306 99.3674C64.9903 99.3536 64.7509 99.4054 64.5433 99.5163L46.3766 109.243Z" fill="#37474F"/>
<path d="M65.5047 100.26C66.4036 100.663 67.9284 101.775 68.6168 104.725C68.7329 105.127 68.7225 105.55 68.5867 105.947C68.4509 106.343 68.1952 106.697 67.8488 106.968C67.2229 107.372 53.7843 114.312 52.0034 115.279C50.4673 116.111 49.6707 115.005 49.3351 114.312C48.7661 113.082 48.2768 112.126 47.8558 111.392C47.5343 110.592 47.0324 109.861 46.3822 109.248L64.2871 100.307C64.4704 100.209 64.6772 100.154 64.8895 100.146C65.1018 100.137 65.3131 100.177 65.5047 100.26Z" fill="#263238"/>
<path d="M37.4386 106.854C37.6987 107.743 37.8682 108.651 37.945 109.568C37.945 109.754 37.6662 109.852 37.5866 109.852C36.9359 109.733 36.3337 109.454 35.8456 109.046C35.9368 108.264 36.0927 107.49 36.3121 106.73L37.4386 106.854Z" fill="#263238"/>
<path d="M38.019 106.126C38.019 105.931 37.9552 105.74 37.8358 105.578C37.7164 105.415 37.5467 105.289 37.3481 105.214C37.1496 105.139 36.9311 105.12 36.7203 105.158C36.5095 105.196 36.3158 105.29 36.1639 105.428C36.0119 105.566 35.9084 105.742 35.8665 105.933C35.8245 106.125 35.8461 106.323 35.9283 106.504C36.0106 106.684 36.1498 106.838 36.3285 106.947C36.5073 107.055 36.7174 107.113 36.9323 107.113C37.2205 107.113 37.4969 107.009 37.7007 106.824C37.9045 106.639 38.019 106.388 38.019 106.126Z" fill="#263238"/>
<path d="M51.6109 76.1619C52.8 76.0585 53.9208 76.1619 54.2053 77.242C54.4898 78.3221 54.3874 79.3092 54.2053 79.4436C53.6028 79.3742 53.0406 79.1316 52.6009 78.7511C52.4643 78.5185 53.1072 76.6063 52.0319 76.2084C51.9001 76.1686 51.7609 76.1528 51.6223 76.1619H51.6109Z" fill="#263238"/>
<path d="M64.6571 99.459C64.841 99.3604 65.0489 99.3046 65.2623 99.2964C65.4757 99.2883 65.688 99.3282 65.8803 99.4125C66.7793 99.8156 68.3041 100.927 68.9925 103.878C69.1079 104.279 69.0971 104.702 68.9614 105.099C68.8256 105.495 68.5703 105.849 68.2244 106.121C67.5986 106.524 54.1656 113.464 52.3848 114.431C50.8486 115.263 50.0464 114.157 49.7107 113.464C47.8502 109.929 46.3766 109.242 46.3766 109.242L64.6571 99.459Z" fill="#37474F"/>
<path d="M72.0475 16.3775L65.9313 19.5817C65.9651 19.3383 65.9822 19.0932 65.9825 18.8479V17.2406C65.9825 14.3775 63.7692 13.2147 61.044 14.6566C59.8657 15.3122 58.8598 16.1942 58.0968 17.2406C57.6473 13.623 54.5408 12.2999 50.763 14.2793C46.6779 16.4241 43.3666 21.6334 43.3666 25.9126V28.3209C43.3406 29.2821 43.5545 30.2363 43.9925 31.1116L38.9117 33.7732C38.1138 34.2465 37.4498 34.8838 36.9734 35.6335C36.4969 36.3831 36.2215 37.2242 36.1694 38.0885C36.1694 39.6751 37.3983 40.3211 38.9117 39.5252L72.0475 22.1502C72.8454 21.677 73.5094 21.0397 73.9859 20.29C74.4623 19.5403 74.7377 18.6993 74.7898 17.8349C74.7898 16.2277 73.5723 15.5817 72.0475 16.3775Z" fill="#F0F0F0"/>
<path d="M199.123 160.783L197.985 160.199L198.793 159.868C198.793 159.868 199.425 160.023 199.442 160.049C199.436 160.183 199.421 160.316 199.396 160.447L199.123 160.783Z" fill="#E0E0E0"/>
<path d="M199.123 160.783L197.985 160.199L198.793 159.868C198.793 159.868 199.425 160.023 199.442 160.049C199.436 160.183 199.421 160.316 199.396 160.447L199.123 160.783Z" fill="#439D57"/>
<path opacity="0.1" d="M199.123 160.783L197.985 160.199L198.793 159.868C198.793 159.868 199.425 160.023 199.442 160.049C199.436 160.183 199.421 160.316 199.396 160.447L199.123 160.783Z" fill="white"/>
<path d="M156.781 180.158C157.286 180.39 157.843 180.511 158.408 180.511C158.974 180.511 159.531 180.39 160.036 180.158L196.528 161.036L141.909 132.385L140.634 131.718L104.142 150.84C103.248 151.31 103.248 152.08 104.142 152.545L156.781 180.158Z" fill="#439D57"/>
<path opacity="0.8" d="M156.781 180.158C157.286 180.39 157.843 180.511 158.408 180.511C158.974 180.511 159.531 180.39 160.036 180.158L196.528 161.036L141.909 132.385L140.634 131.718L104.142 150.84C103.248 151.31 103.248 152.08 104.142 152.545L156.781 180.158Z" fill="white"/>
<path d="M170.488 144.002L183.215 150.654L191.454 146.333L201.018 151.367V157.625C201.018 158.385 200.079 159.465 199.738 159.29C199.106 159.428 198.492 159.626 197.906 159.879C196.949 160.373 196.06 160.97 195.26 161.656L166.016 146.323L170.488 144.002Z" fill="#E0E0E0"/>
<path d="M170.488 144.002L183.215 150.654L191.454 146.333L201.018 151.367V157.625C201.018 158.385 200.079 159.465 199.738 159.29C199.106 159.428 198.492 159.626 197.906 159.879C196.949 160.373 196.06 160.97 195.26 161.656L166.016 146.323L170.488 144.002Z" fill="#439D57"/>
<path opacity="0.1" d="M170.488 144.002L183.215 150.654L191.454 146.333L201.018 151.367V157.625C201.018 158.385 200.079 159.465 199.738 159.29C199.106 159.428 198.492 159.626 197.906 159.879C196.949 160.373 196.06 160.97 195.26 161.656L166.016 146.323L170.488 144.002Z" fill="white"/>
<path d="M160.053 180.153L162.255 178.995L195.294 161.672C195.319 161.28 195.476 160.905 195.744 160.597C196.134 160.126 196.626 159.732 197.189 159.439C197.66 159.177 198.196 159.026 198.748 159C199.117 158.995 199.477 159.103 199.772 159.305C200.202 158.538 200.412 157.685 200.381 156.824H201.632C201.632 158.375 201.064 159.966 200.364 160.328L199.732 160.664C199.374 160.85 199.089 160.86 199.089 160.664V160.359C199.089 160.018 198.52 160.034 197.815 160.406C197.109 160.778 196.546 161.346 196.546 161.687V161.997C196.546 162.173 196.057 162.566 195.465 162.876L163.513 179.636L160.053 181.445C159.553 181.68 158.996 181.799 158.432 181.791V180.478C158.994 180.499 159.553 180.387 160.053 180.153Z" fill="#439D57"/>
<path opacity="0.6" d="M160.053 180.153L162.255 178.995L195.294 161.672C195.319 161.28 195.476 160.905 195.744 160.597C196.134 160.126 196.626 159.732 197.189 159.439C197.66 159.177 198.196 159.026 198.748 159C199.117 158.995 199.477 159.103 199.772 159.305C200.202 158.538 200.412 157.685 200.381 156.824H201.632C201.632 158.375 201.064 159.966 200.364 160.328L199.732 160.664C199.374 160.85 199.089 160.86 199.089 160.664V160.359C199.089 160.018 198.52 160.034 197.815 160.406C197.109 160.778 196.546 161.346 196.546 161.687V161.997C196.546 162.173 196.057 162.566 195.465 162.876L163.513 179.636L160.053 181.445C159.553 181.68 158.996 181.799 158.432 181.791V180.478C158.994 180.499 159.553 180.387 160.053 180.153Z" fill="white"/>
<path d="M103.46 151.667V153.006C103.478 153.184 103.548 153.355 103.662 153.502C103.776 153.649 103.929 153.766 104.108 153.843L153.306 179.642L156.759 181.45C157.26 181.686 157.817 181.805 158.381 181.797V180.484C157.813 180.496 157.252 180.373 156.753 180.127L154.557 178.975L104.108 152.509C103.929 152.433 103.774 152.314 103.66 152.167C103.547 152.019 103.477 151.847 103.46 151.667Z" fill="#439D57"/>
<path opacity="0.1" d="M103.46 151.667V153.006C103.478 153.184 103.548 153.355 103.662 153.502C103.776 153.649 103.929 153.766 104.108 153.843L153.306 179.642L156.759 181.45C157.26 181.686 157.817 181.805 158.381 181.797V180.484C157.813 180.496 157.252 180.373 156.753 180.127L154.557 178.975L104.108 152.509C103.929 152.433 103.774 152.314 103.66 152.167C103.547 152.019 103.477 151.847 103.46 151.667Z" fill="white"/>
<path d="M158.409 171.662V179.331C158.785 179.341 159.158 179.261 159.49 179.099L163.472 177L193.962 161.01V153.01L158.409 171.662Z" fill="white"/>
<path d="M105.047 144.633V150.53C105.067 150.871 105.175 151.204 105.363 151.5C105.551 151.796 105.813 152.048 106.128 152.235L153.351 176.99L157.334 179.088C157.666 179.25 158.038 179.331 158.415 179.321V172.473L105.047 144.633Z" fill="#F0F0F0"/>
<path d="M193.985 161C194.016 160.608 194.176 160.233 194.446 159.925C194.838 159.457 195.33 159.065 195.891 158.773C196.359 158.507 196.894 158.354 197.445 158.328C197.815 158.326 198.177 158.433 198.474 158.633V150.648L193.997 153L193.985 161Z" fill="#455A64"/>
<path d="M195.778 158.84C195.259 159.118 194.807 159.487 194.446 159.925C194.176 160.233 194.016 160.607 193.985 161V153.372H195.772L195.778 158.84Z" fill="#F5F5F5"/>
<path d="M141.898 123L196.517 151.651V152.318C196.517 152.685 197.086 152.835 197.786 152.452C198.486 152.07 199.06 151.625 199.06 150.99L199.129 150.359L143.468 121.17L143.246 121.051C143.188 121.145 143.155 121.249 143.149 121.356V121.666C143.161 122.049 142.598 122.643 141.898 123Z" fill="#439D57"/>
<path opacity="0.6" d="M141.898 123L196.517 151.651V152.318C196.517 152.685 197.086 152.835 197.786 152.452C198.486 152.07 199.06 151.625 199.06 150.99L199.129 150.359L143.468 121.17L143.246 121.051C143.188 121.145 143.155 121.249 143.149 121.356V121.666C143.161 122.049 142.598 122.643 141.898 123Z" fill="white"/>
<path d="M160.053 170.809L195.738 152.09C196.187 151.879 196.603 151.703 196.779 151.786L196.546 151.667L141.926 123.015L141.289 122.679C141.003 122.605 140.702 122.588 140.408 122.628C140.114 122.668 139.832 122.765 139.582 122.912L104.176 141.486C103.283 141.956 103.283 142.721 104.176 143.191L156.827 170.809C157.328 171.037 157.88 171.156 158.44 171.156C159 171.156 159.552 171.037 160.053 170.809Z" fill="#439D57"/>
<path opacity="0.8" d="M160.053 170.809L195.738 152.09C196.187 151.879 196.603 151.703 196.779 151.786L196.546 151.667L141.926 123.015L141.289 122.679C141.003 122.605 140.702 122.588 140.408 122.628C140.114 122.668 139.832 122.765 139.582 122.912L104.176 141.486C103.283 141.956 103.283 142.721 104.176 143.191L156.827 170.809C157.328 171.037 157.88 171.156 158.44 171.156C159 171.156 159.552 171.037 160.053 170.809Z" fill="white"/>
<path d="M143.257 121.067L143.479 121.185L199.14 150.39C199.168 150.336 199.209 150.289 199.259 150.251L199.447 150.152L199.851 149.946L200.346 149.682C200.442 149.624 200.557 149.598 200.672 149.607C200.787 149.616 200.894 149.661 200.978 149.734C201.001 149.748 201.022 149.765 201.04 149.785C201.107 149.848 201.163 149.919 201.205 149.997C201.266 150.087 201.315 150.182 201.353 150.282C201.397 150.388 201.433 150.497 201.461 150.607C201.495 150.736 201.518 150.86 201.546 150.995C201.562 151.072 201.571 151.149 201.575 151.227C201.575 151.289 201.575 151.346 201.575 151.419C201.575 151.491 201.575 151.708 201.575 151.858V150.437C201.516 149.97 201.338 149.522 201.056 149.128C200.774 148.734 200.394 148.405 199.948 148.168L147.291 120.55C146.857 120.317 146.37 120.179 145.868 120.146C145.366 120.113 144.861 120.185 144.395 120.359L143.73 120.71L143.445 120.855C143.363 120.909 143.298 120.982 143.257 121.067Z" fill="#439D57"/>
<path opacity="0.8" d="M143.257 121.067L143.479 121.185L199.14 150.39C199.168 150.336 199.209 150.289 199.259 150.251L199.447 150.152L199.851 149.946L200.346 149.682C200.442 149.624 200.557 149.598 200.672 149.607C200.787 149.616 200.894 149.661 200.978 149.734C201.001 149.748 201.022 149.765 201.04 149.785C201.107 149.848 201.163 149.919 201.205 149.997C201.266 150.087 201.315 150.182 201.353 150.282C201.397 150.388 201.433 150.497 201.461 150.607C201.495 150.736 201.518 150.86 201.546 150.995C201.562 151.072 201.571 151.149 201.575 151.227C201.575 151.289 201.575 151.346 201.575 151.419C201.575 151.491 201.575 151.708 201.575 151.858V150.437C201.516 149.97 201.338 149.522 201.056 149.128C200.774 148.734 200.394 148.405 199.948 148.168L147.291 120.55C146.857 120.317 146.37 120.179 145.868 120.146C145.366 120.113 144.861 120.185 144.395 120.359L143.73 120.71L143.445 120.855C143.363 120.909 143.298 120.982 143.257 121.067Z" fill="white"/>
<path d="M160.053 170.814L162.261 169.651L187.642 156.349L195.743 152.101C196.312 151.79 196.79 151.682 196.819 151.842V152.173C196.819 152.545 197.388 152.545 198.087 152.173C198.347 152.07 198.574 151.911 198.749 151.709C198.924 151.507 199.041 151.268 199.089 151.015V150.654C199.08 150.573 199.093 150.492 199.126 150.416C199.158 150.341 199.21 150.273 199.277 150.219L199.464 150.121L199.868 149.914L200.363 149.651C200.459 149.593 200.574 149.566 200.689 149.576C200.804 149.585 200.912 149.63 200.995 149.703C201.018 149.717 201.039 149.734 201.057 149.754C201.1 149.795 201.136 149.84 201.166 149.889C201.19 149.911 201.209 149.937 201.222 149.966C201.283 150.056 201.333 150.151 201.37 150.25C201.414 150.357 201.45 150.465 201.478 150.576C201.513 150.705 201.535 150.829 201.564 150.964C201.579 151.04 201.589 151.118 201.592 151.196C201.592 151.258 201.592 151.315 201.592 151.387C201.592 151.46 201.592 151.677 201.592 151.827V156.809H200.341V151.827C200.341 151.708 200.341 151.589 200.341 151.475L200.306 151.191C200.309 151.183 200.309 151.174 200.306 151.165C200.193 152.07 199.242 152.876 198.417 153.3C197.959 153.562 197.434 153.712 196.893 153.734C196.475 153.738 196.071 153.604 195.755 153.356L195.641 153.413L195.425 153.532L163.472 170.292L160.053 172.122C159.56 172.351 159.013 172.466 158.46 172.458V171.145C159.013 171.155 159.56 171.042 160.053 170.814Z" fill="#439D57"/>
<path opacity="0.6" d="M160.053 170.814L162.261 169.651L187.642 156.349L195.743 152.101C196.312 151.79 196.79 151.682 196.819 151.842V152.173C196.819 152.545 197.388 152.545 198.087 152.173C198.347 152.07 198.574 151.911 198.749 151.709C198.924 151.507 199.041 151.268 199.089 151.015V150.654C199.08 150.573 199.093 150.492 199.126 150.416C199.158 150.341 199.21 150.273 199.277 150.219L199.464 150.121L199.868 149.914L200.363 149.651C200.459 149.593 200.574 149.566 200.689 149.576C200.804 149.585 200.912 149.63 200.995 149.703C201.018 149.717 201.039 149.734 201.057 149.754C201.1 149.795 201.136 149.84 201.166 149.889C201.19 149.911 201.209 149.937 201.222 149.966C201.283 150.056 201.333 150.151 201.37 150.25C201.414 150.357 201.45 150.465 201.478 150.576C201.513 150.705 201.535 150.829 201.564 150.964C201.579 151.04 201.589 151.118 201.592 151.196C201.592 151.258 201.592 151.315 201.592 151.387C201.592 151.46 201.592 151.677 201.592 151.827V156.809H200.341V151.827C200.341 151.708 200.341 151.589 200.341 151.475L200.306 151.191C200.309 151.183 200.309 151.174 200.306 151.165C200.193 152.07 199.242 152.876 198.417 153.3C197.959 153.562 197.434 153.712 196.893 153.734C196.475 153.738 196.071 153.604 195.755 153.356L195.641 153.413L195.425 153.532L163.472 170.292L160.053 172.122C159.56 172.351 159.013 172.466 158.46 172.458V171.145C159.013 171.155 159.56 171.042 160.053 170.814Z" fill="white"/>
<path d="M103.46 142.323V143.672C103.477 143.851 103.547 144.023 103.66 144.171C103.774 144.319 103.929 144.437 104.108 144.514L153.306 170.313L156.759 172.127C157.26 172.362 157.817 172.481 158.381 172.473V171.16C157.814 171.172 157.254 171.051 156.753 170.809L154.557 169.657L104.108 143.191C103.925 143.112 103.768 142.99 103.654 142.837C103.54 142.685 103.473 142.507 103.46 142.323Z" fill="#439D57"/>
<path opacity="0.1" d="M103.46 142.323V143.672C103.477 143.851 103.547 144.023 103.66 144.171C103.774 144.319 103.929 144.437 104.108 144.514L153.306 170.313L156.759 172.127C157.26 172.362 157.817 172.481 158.381 172.473V171.16C157.814 171.172 157.254 171.051 156.753 170.809L154.557 169.657L104.108 143.191C103.925 143.112 103.768 142.99 103.654 142.837C103.54 142.685 103.473 142.507 103.46 142.323Z" fill="white"/>
<path d="M139.536 122.912C139.786 122.765 140.068 122.668 140.362 122.628C140.656 122.588 140.957 122.605 141.243 122.679L141.88 123.015C142.58 122.643 143.143 122.049 143.143 121.682V121.372C143.149 121.265 143.182 121.16 143.24 121.067C143.285 120.983 143.354 120.911 143.439 120.86L143.724 120.715L144.389 120.364C144.856 120.191 145.36 120.118 145.862 120.151C146.364 120.184 146.852 120.323 147.285 120.555L199.942 148.173L199.999 148.204L162.841 167.693C162.505 167.849 162.133 167.93 161.757 167.93C161.38 167.93 161.008 167.849 160.673 167.693L107.675 139.625L139.536 122.912Z" fill="#263238"/>
<path d="M165.816 164.861L164.411 164.127C164.789 164.007 165.195 163.981 165.589 164.049C165.964 164.225 165.816 164.861 165.816 164.861Z" fill="#439D57"/>
<path opacity="0.7" d="M165.816 164.861L164.411 164.127C164.789 164.007 165.195 163.981 165.589 164.049C165.964 164.225 165.816 164.861 165.816 164.861Z" fill="black"/>
<path d="M166.784 164.07C166.624 163.913 166.43 163.787 166.214 163.701C165.998 163.615 165.765 163.571 165.529 163.571C165.293 163.571 165.06 163.615 164.844 163.701C164.628 163.787 164.434 163.913 164.274 164.07C162.903 165.212 162.835 166.344 162.266 166.328C161.697 166.313 161.697 157.207 161.697 157.207L167.108 161.76L166.784 164.07Z" fill="#439D57"/>
<path opacity="0.7" d="M166.784 164.07C166.624 163.913 166.43 163.787 166.214 163.701C165.998 163.615 165.765 163.571 165.529 163.571C165.293 163.571 165.06 163.615 164.844 163.701C164.628 163.787 164.434 163.913 164.274 164.07C162.903 165.212 162.835 166.344 162.266 166.328C161.697 166.313 161.697 157.207 161.697 157.207L167.108 161.76L166.784 164.07Z" fill="black"/>
<path d="M110.218 130.969L110.127 130.922L110.992 130.468L148.247 110.932L202.531 142.84C203.424 143.31 203.583 143.992 202.884 144.354L201.615 145.021L166.795 163.311L166.545 163.145L110.218 130.969Z" fill="#439D57"/>
<path opacity="0.5" d="M110.218 130.969L110.127 130.922L110.992 130.468L148.247 110.932L202.531 142.84C203.424 143.31 203.583 143.992 202.884 144.354L201.615 145.021L166.795 163.311L166.545 163.145L110.218 130.969Z" fill="black"/>
<path d="M162.147 152.896L164.843 152.38V162.199C163.216 162.829 162.181 163.419 161.999 164.654L162.147 152.896Z" fill="#455A64"/>
<path d="M166.033 162.329L200.529 144.24C200.845 144.054 201.108 143.802 201.297 143.506C201.486 143.209 201.595 142.877 201.615 142.535V132.865L166.784 151.29C166.784 151.29 166.369 152.659 165.134 153.088C163.9 153.517 164.844 153.956 164.844 153.956V162.225C165.908 162.086 166.033 162.329 166.033 162.329Z" fill="#F0F0F0"/>
<path d="M162.852 152.561C163.21 152.375 163.495 152.364 163.495 152.561V152.866C163.495 153.207 164.064 153.191 164.769 152.819C165.475 152.447 166.044 151.878 166.044 151.537V151.227C166.044 151.052 166.527 150.659 167.119 150.349L110.998 121.139L110.127 121.594C110.007 121.71 109.931 121.859 109.911 122.017V122.328C109.911 122.669 109.342 123.242 108.642 123.609C107.942 123.976 107.368 123.997 107.368 123.656V123.346C107.368 123.17 107.083 123.185 106.731 123.372L162.852 152.561Z" fill="#439D57"/>
<path opacity="0.6" d="M162.852 152.561C163.21 152.375 163.495 152.364 163.495 152.561V152.866C163.495 153.207 164.064 153.191 164.769 152.819C165.475 152.447 166.044 151.878 166.044 151.537V151.227C166.044 151.052 166.527 150.659 167.119 150.349L110.998 121.139L110.127 121.594C110.007 121.71 109.931 121.859 109.911 122.017V122.328C109.911 122.669 109.342 123.242 108.642 123.609C107.942 123.976 107.368 123.997 107.368 123.656V123.346C107.368 123.17 107.083 123.185 106.731 123.372L162.852 152.561Z" fill="black"/>
<path d="M110.218 121.62L110.127 121.573L110.992 121.118L148.247 101.583L202.531 130.059C203.424 130.529 203.583 131.207 202.884 131.573L201.615 132.235L166.784 151.29L110.218 121.62Z" fill="#439D57"/>
<path opacity="0.5" d="M110.218 121.62L110.127 121.573L110.992 121.118L148.247 101.583L202.531 130.059C203.424 130.529 203.583 131.207 202.884 131.573L201.615 132.235L166.784 151.29L110.218 121.62Z" fill="black"/>
<path d="M107.357 123.031L163.467 152.457L161.504 153.853L105.604 124.54C105.74 124.163 106.001 123.833 106.35 123.594L107.357 123.031Z" fill="#439D57"/>
<path opacity="0.5" d="M107.357 123.031L163.467 152.457L161.504 153.853L105.604 124.54C105.74 124.163 106.001 123.833 106.35 123.594L107.357 123.031Z" fill="black"/>
<path d="M105.792 137.692C105.758 137.673 105.725 137.65 105.695 137.625C105.67 137.614 105.648 137.596 105.633 137.573C105.587 137.533 105.548 137.486 105.519 137.434C105.494 137.414 105.474 137.39 105.462 137.362C105.401 137.273 105.353 137.177 105.32 137.077C105.273 136.97 105.235 136.859 105.206 136.747C105.172 136.623 105.149 136.498 105.126 136.364C105.107 136.288 105.095 136.21 105.092 136.132V135.94C105.092 135.801 105.092 135.651 105.092 135.501V127.082C105.082 126.198 105.26 125.321 105.616 124.498L161.515 153.811L161.749 167L105.855 137.677L105.792 137.692Z" fill="#439D57"/>
<path opacity="0.7" d="M105.792 137.692C105.758 137.673 105.725 137.65 105.695 137.625C105.67 137.614 105.648 137.596 105.633 137.573C105.587 137.533 105.548 137.486 105.519 137.434C105.494 137.414 105.474 137.39 105.462 137.362C105.401 137.273 105.353 137.177 105.32 137.077C105.273 136.97 105.235 136.859 105.206 136.747C105.172 136.623 105.149 136.498 105.126 136.364C105.107 136.288 105.095 136.21 105.092 136.132V135.94C105.092 135.801 105.092 135.651 105.092 135.501V127.082C105.082 126.198 105.26 125.321 105.616 124.498L161.515 153.811L161.749 167L105.855 137.677L105.792 137.692Z" fill="black"/>
<path opacity="0.79" d="M161.475 153.832C161.475 153.832 117.45 135.119 113.444 133.403C110.799 132.271 109.501 134.648 110.127 137.108C110.696 139.258 113.012 141.475 113.012 141.475L105.814 137.697C105.78 137.678 105.747 137.656 105.718 137.63C105.692 137.619 105.67 137.601 105.655 137.579C105.609 137.538 105.571 137.491 105.541 137.439C105.516 137.42 105.497 137.395 105.484 137.367C105.424 137.278 105.376 137.182 105.342 137.082C105.295 136.975 105.257 136.864 105.228 136.752C105.194 136.628 105.172 136.504 105.149 136.369C105.129 136.293 105.118 136.215 105.115 136.137V135.946C105.115 135.806 105.115 135.656 105.115 135.506V127.082C105.104 126.198 105.282 125.321 105.638 124.498L161.475 153.832Z" fill="#263238"/>
<path d="M160.958 156.401H162.21C162.18 155.541 162.388 154.688 162.813 153.92C163.111 154.121 163.472 154.228 163.843 154.225C164.394 154.199 164.928 154.046 165.396 153.78C165.959 153.49 166.451 153.098 166.841 152.628C166.871 152.596 166.897 152.561 166.921 152.525C167.142 152.239 167.27 151.902 167.291 151.553L200.33 134.23L201.467 133.635L202.901 132.886C203.026 132.834 203.133 132.753 203.21 132.65C203.287 132.547 203.332 132.426 203.339 132.302V130.974C203.333 131.101 203.289 131.223 203.212 131.329C203.135 131.435 203.027 131.519 202.901 131.573L199.106 133.558L167.16 150.318C166.562 150.628 166.079 151.021 166.079 151.196V151.507C166.043 151.703 165.939 151.884 165.783 152.023C165.509 152.323 165.177 152.575 164.804 152.768C164.099 153.14 163.53 153.155 163.53 152.814V152.509C163.53 152.328 163.251 152.344 162.893 152.509L162.261 152.845C161.527 153.259 160.958 154.835 160.958 156.401Z" fill="#439D57"/>
<path d="M162.209 156.401V164.819C162.209 164.938 162.209 165.057 162.209 165.171L162.237 165.455C162.235 165.463 162.235 165.472 162.237 165.481C162.351 164.576 163.301 163.77 164.126 163.346C164.586 163.083 165.114 162.934 165.657 162.912C166.074 162.907 166.479 163.042 166.795 163.29L166.903 163.233L167.125 163.114L199.071 146.354L200.909 145.393L201.432 145.114L202.98 144.302C203.082 144.244 203.166 144.164 203.226 144.07C203.285 143.975 203.318 143.869 203.321 143.76V145.088C203.317 145.191 203.286 145.291 203.231 145.381C203.175 145.471 203.097 145.547 203.003 145.605C202.821 145.703 202.627 145.796 202.434 145.904L202.075 146.095L201.461 146.416C201.324 146.493 201.199 146.561 201.08 146.617C200.96 146.674 200.892 146.721 200.812 146.757L200.34 147.01L174.959 160.313L166.857 164.561C166.288 164.871 165.816 164.98 165.782 164.819C165.78 164.8 165.78 164.781 165.782 164.762V164.468C165.782 164.096 165.213 164.096 164.513 164.468C164.254 164.57 164.026 164.73 163.852 164.932C163.677 165.134 163.56 165.372 163.512 165.626V165.987C163.52 166.068 163.508 166.149 163.475 166.225C163.442 166.3 163.391 166.367 163.324 166.421L163.136 166.52L162.738 166.726L162.243 166.99C162.147 167.048 162.032 167.074 161.917 167.065C161.802 167.056 161.695 167.011 161.612 166.938C161.586 166.927 161.564 166.909 161.549 166.887C161.503 166.848 161.465 166.802 161.435 166.752C161.413 166.73 161.394 166.706 161.378 166.68C161.317 166.591 161.27 166.496 161.236 166.396C161.188 166.29 161.15 166.181 161.122 166.07C161.088 165.941 161.065 165.817 161.043 165.682C161.022 165.606 161.011 165.528 161.008 165.45C161.008 165.388 161.008 165.331 161.008 165.259C161.008 165.186 161.008 164.969 161.008 164.819V156.401H162.209Z" fill="#439D57"/>
<g opacity="0.6">
<path d="M160.958 156.401H162.21C162.18 155.541 162.388 154.688 162.813 153.92C163.111 154.121 163.472 154.228 163.843 154.225C164.394 154.199 164.928 154.046 165.396 153.78C165.959 153.49 166.451 153.098 166.841 152.628C166.871 152.596 166.897 152.561 166.921 152.525C167.142 152.239 167.27 151.902 167.291 151.553L200.33 134.23L201.467 133.635L202.901 132.886C203.026 132.834 203.133 132.753 203.21 132.65C203.287 132.547 203.332 132.426 203.339 132.302V130.974C203.333 131.101 203.289 131.223 203.212 131.329C203.135 131.435 203.027 131.519 202.901 131.573L199.106 133.558L167.16 150.318C166.562 150.628 166.079 151.021 166.079 151.196V151.507C166.043 151.703 165.939 151.884 165.783 152.023C165.509 152.323 165.177 152.575 164.804 152.768C164.099 153.14 163.53 153.155 163.53 152.814V152.509C163.53 152.328 163.251 152.344 162.893 152.509L162.261 152.845C161.527 153.259 160.958 154.835 160.958 156.401Z" fill="black"/>
<path d="M162.21 156.401V164.819C162.21 164.938 162.21 165.057 162.21 165.171L162.239 165.455C162.236 165.463 162.236 165.472 162.239 165.481C162.352 164.576 163.302 163.77 164.127 163.346C164.587 163.083 165.115 162.934 165.658 162.912C166.075 162.907 166.48 163.042 166.796 163.29L166.904 163.233L167.126 163.114L199.072 146.354L200.91 145.393L201.434 145.114L202.981 144.302C203.083 144.244 203.167 144.164 203.227 144.07C203.286 143.975 203.319 143.869 203.323 143.76V145.088C203.318 145.191 203.287 145.291 203.232 145.381C203.176 145.471 203.098 145.547 203.004 145.605C202.822 145.703 202.628 145.796 202.435 145.904L202.077 146.095L201.462 146.416C201.326 146.493 201.2 146.561 201.081 146.617C200.961 146.674 200.893 146.721 200.813 146.757L200.341 147.01L174.96 160.313L166.858 164.561C166.289 164.871 165.817 164.98 165.783 164.819C165.781 164.8 165.781 164.781 165.783 164.762V164.468C165.783 164.096 165.214 164.096 164.514 164.468C164.255 164.57 164.028 164.73 163.853 164.932C163.678 165.134 163.561 165.372 163.513 165.626V165.987C163.521 166.068 163.509 166.149 163.476 166.225C163.443 166.3 163.392 166.367 163.325 166.421L163.137 166.52L162.739 166.726L162.244 166.99C162.148 167.048 162.033 167.074 161.918 167.065C161.804 167.056 161.696 167.011 161.613 166.938C161.587 166.927 161.565 166.909 161.55 166.887C161.504 166.848 161.466 166.802 161.436 166.752C161.414 166.73 161.395 166.706 161.379 166.68C161.318 166.591 161.271 166.496 161.237 166.396C161.189 166.29 161.151 166.181 161.123 166.07C161.089 165.941 161.066 165.817 161.044 165.682C161.024 165.606 161.012 165.528 161.01 165.45C161.01 165.388 161.01 165.331 161.01 165.259C161.01 165.186 161.01 164.969 161.01 164.819V156.401H162.21Z" fill="black"/>
</g>
<path d="M105.576 124.514L158.705 152.38L198.862 131.32C198.993 131.28 199.107 131.204 199.188 131.102C199.269 131 199.312 130.878 199.312 130.752C199.312 130.626 199.269 130.504 199.188 130.402C199.107 130.3 198.993 130.223 198.862 130.183L146.29 102.607L111.015 121.119L110.145 121.579C110.027 121.694 109.953 121.841 109.934 121.997V122.307C109.934 122.648 109.365 123.222 108.666 123.589C108.63 123.61 108.592 123.628 108.552 123.641L107.38 123.026L106.811 123.315L106.731 123.351L106.321 123.568C105.973 123.807 105.713 124.137 105.576 124.514Z" fill="#263238"/>
<path d="M195.897 131.527L194.298 130.752L195.755 130.437C195.894 130.585 195.983 130.768 196.008 130.962C196.033 131.156 195.995 131.353 195.897 131.527Z" fill="#E0E0E0"/>
<g style="mix-blend-mode:multiply" opacity="0.5">
<path d="M195.897 131.527L194.298 130.752L195.755 130.437C195.894 130.585 195.983 130.768 196.008 130.962C196.033 131.156 195.995 131.353 195.897 131.527Z" fill="#E0E0E0"/>
</g>
<path d="M153.527 150.907C154.031 151.139 154.587 151.26 155.152 151.26C155.716 151.26 156.273 151.139 156.776 150.907L193.269 131.785L138.649 100.42L137.369 99.7483L100.882 121.578C99.9889 122.048 99.9889 122.813 100.882 123.284L153.527 150.907Z" fill="#439D57"/>
<path d="M167.228 112.028L194.799 129L179.955 118.664L188.194 114.343L197.775 119.382V128.369C197.775 129.134 196.836 130.214 196.495 130.038C195.863 130.177 195.249 130.375 194.663 130.628C193.706 131.122 192.817 131.719 192.017 132.405L162.779 114.353L167.228 112.028Z" fill="#439D57"/>
<path opacity="0.2" d="M167.228 112.028L194.799 129L179.955 118.664L188.194 114.343L197.775 119.382V128.369C197.775 129.134 196.836 130.214 196.495 130.038C195.863 130.177 195.249 130.375 194.663 130.628C193.706 131.122 192.817 131.719 192.017 132.405L162.779 114.353L167.228 112.028Z" fill="black"/>
<path d="M155.149 139.687V150.065C155.527 150.072 155.901 149.992 156.236 149.832L160.218 147.734L190.714 131.744V121.025L155.149 139.687Z" fill="white"/>
<path d="M101.786 112.663V121.278C101.807 121.62 101.916 121.952 102.104 122.248C102.292 122.544 102.553 122.796 102.868 122.984L150.091 147.739L154.073 149.837C154.406 149.997 154.778 150.077 155.154 150.07V140.498L101.786 112.663Z" fill="#F0F0F0"/>
<path d="M190.731 131.744C190.759 131.352 190.918 130.977 191.187 130.669C191.575 130.198 192.067 129.806 192.632 129.517C193.101 129.251 193.638 129.098 194.191 129.072C194.549 129.039 194.909 129.116 195.215 129.289V118.674L190.737 121.026L190.731 131.744Z" fill="#455A64"/>
<path d="M192.518 129.578C192.002 129.862 191.55 130.232 191.187 130.669C190.918 130.977 190.759 131.352 190.731 131.744V121.408H192.512L192.518 129.578Z" fill="#F5F5F5"/>
<path d="M138.644 91.0402L193.263 119.697V120.358C193.263 120.731 193.832 120.875 194.532 120.498C195.232 120.121 195.812 119.666 195.812 119.03L195.88 118.4L140.22 89.2107L139.992 89.0918C139.935 89.187 139.904 89.2934 139.901 89.4019V89.7068C139.907 90.0737 139.343 90.6681 138.644 91.0402Z" fill="#439D57"/>
<path opacity="0.2" d="M138.644 91.0402L193.263 119.697V120.358C193.263 120.731 193.832 120.875 194.532 120.498C195.232 120.121 195.812 119.666 195.812 119.03L195.88 118.4L140.22 89.2107L139.992 89.0918C139.935 89.187 139.904 89.2934 139.901 89.4019V89.7068C139.907 90.0737 139.343 90.6681 138.644 91.0402Z" fill="black"/>
<path d="M156.776 138.834L192.483 120.121C192.939 119.904 193.354 119.728 193.525 119.811L193.291 119.697L138.672 91.0403L138.029 90.7096C137.743 90.6325 137.442 90.6133 137.147 90.6535C136.852 90.6937 136.571 90.7922 136.322 90.9421L100.882 109.511C99.9889 109.981 99.9889 110.751 100.882 111.216L153.539 138.834C154.041 139.065 154.595 139.185 155.157 139.185C155.72 139.185 156.274 139.065 156.776 138.834Z" fill="#439D57"/>
<path d="M139.998 89.0921L140.225 89.2109L195.897 118.4C195.925 118.346 195.966 118.299 196.017 118.261L196.205 118.168L196.603 117.956L197.098 117.692C197.194 117.635 197.309 117.609 197.423 117.618C197.538 117.628 197.646 117.672 197.729 117.744C197.753 117.758 197.774 117.776 197.792 117.795C197.858 117.86 197.915 117.931 197.963 118.007C198.021 118.097 198.069 118.192 198.105 118.292C198.15 118.4 198.187 118.51 198.219 118.622C198.247 118.746 198.276 118.87 198.298 119.005C198.316 119.083 198.327 119.163 198.332 119.242V119.429C198.332 119.568 198.332 119.718 198.332 119.873V118.452C198.275 117.984 198.098 117.534 197.816 117.139C197.533 116.745 197.153 116.415 196.705 116.178L144.049 88.5598C143.615 88.3276 143.127 88.1901 142.625 88.1578C142.122 88.1255 141.618 88.1994 141.153 88.3737L140.487 88.7251L140.208 88.875C140.117 88.9277 140.044 89.003 139.998 89.0921Z" fill="#439D57"/>
<path d="M156.776 150.907L158.978 149.749L192.017 132.421C192.046 132.029 192.205 131.654 192.472 131.346C192.863 130.877 193.354 130.484 193.917 130.193C194.386 129.931 194.92 129.78 195.47 129.754C195.842 129.747 196.205 129.855 196.5 130.059C196.925 129.289 197.132 128.434 197.103 127.573H198.355C198.355 129.124 197.786 130.715 197.086 131.082L196.455 131.418C196.096 131.604 195.818 131.615 195.818 131.418V131.113C195.818 130.772 195.249 130.788 194.537 131.155C193.826 131.522 193.269 132.1 193.269 132.442V132.746C193.269 132.922 192.785 133.315 192.188 133.63L160.235 150.39L156.776 152.204C156.275 152.439 155.718 152.558 155.155 152.55V151.238C155.717 151.255 156.276 151.141 156.776 150.907Z" fill="#439D57"/>
<path opacity="0.4" d="M156.776 150.907L158.978 149.749L192.017 132.421C192.046 132.029 192.205 131.654 192.472 131.346C192.863 130.877 193.354 130.484 193.917 130.193C194.386 129.931 194.92 129.78 195.47 129.754C195.842 129.747 196.205 129.855 196.5 130.059C196.925 129.289 197.132 128.434 197.103 127.573H198.355C198.355 129.124 197.786 130.715 197.086 131.082L196.455 131.418C196.096 131.604 195.818 131.615 195.818 131.418V131.113C195.818 130.772 195.249 130.788 194.537 131.155C193.826 131.522 193.269 132.1 193.269 132.442V132.746C193.269 132.922 192.785 133.315 192.188 133.63L160.235 150.39L156.776 152.204C156.275 152.439 155.718 152.558 155.155 152.55V151.238C155.717 151.255 156.276 151.141 156.776 150.907Z" fill="black"/>
<path d="M156.765 138.839L158.966 137.682L184.347 124.379L192.483 120.121C193.052 119.816 193.53 119.707 193.564 119.868V120.204C193.564 120.57 194.133 120.57 194.833 120.204C195.093 120.101 195.321 119.94 195.496 119.737C195.671 119.534 195.787 119.295 195.835 119.041V118.679C195.826 118.598 195.839 118.517 195.871 118.442C195.904 118.366 195.956 118.299 196.022 118.245L196.21 118.152L196.608 117.94L197.103 117.676C197.2 117.619 197.314 117.593 197.429 117.603C197.544 117.612 197.651 117.656 197.735 117.728C197.758 117.742 197.779 117.76 197.797 117.78C197.842 117.822 197.88 117.869 197.911 117.919C197.933 117.942 197.952 117.966 197.968 117.992C198.027 118.081 198.074 118.177 198.11 118.276C198.155 118.384 198.193 118.494 198.224 118.607C198.253 118.731 198.281 118.855 198.304 118.989C198.321 119.067 198.333 119.147 198.338 119.227V119.413C198.338 119.552 198.338 119.702 198.338 119.857V127.547H197.086V119.899C197.086 119.78 197.086 119.656 197.086 119.542L197.058 119.258C196.944 120.162 195.994 120.968 195.163 121.392C194.706 121.656 194.18 121.806 193.638 121.826C193.221 121.831 192.816 121.697 192.5 121.449L192.392 121.506L192.17 121.625L160.218 138.385L156.759 140.199C156.264 140.428 155.715 140.544 155.16 140.535V139.222C155.722 139.218 156.273 139.087 156.765 138.839Z" fill="#439D57"/>
<path opacity="0.4" d="M156.765 138.839L158.966 137.682L184.347 124.379L192.483 120.121C193.052 119.816 193.53 119.707 193.564 119.868V120.204C193.564 120.57 194.133 120.57 194.833 120.204C195.093 120.101 195.321 119.94 195.496 119.737C195.671 119.534 195.787 119.295 195.835 119.041V118.679C195.826 118.598 195.839 118.517 195.871 118.442C195.904 118.366 195.956 118.299 196.022 118.245L196.21 118.152L196.608 117.94L197.103 117.676C197.2 117.619 197.314 117.593 197.429 117.603C197.544 117.612 197.651 117.656 197.735 117.728C197.758 117.742 197.779 117.76 197.797 117.78C197.842 117.822 197.88 117.869 197.911 117.919C197.933 117.942 197.952 117.966 197.968 117.992C198.027 118.081 198.074 118.177 198.11 118.276C198.155 118.384 198.193 118.494 198.224 118.607C198.253 118.731 198.281 118.855 198.304 118.989C198.321 119.067 198.333 119.147 198.338 119.227V119.413C198.338 119.552 198.338 119.702 198.338 119.857V127.547H197.086V119.899C197.086 119.78 197.086 119.656 197.086 119.542L197.058 119.258C196.944 120.162 195.994 120.968 195.163 121.392C194.706 121.656 194.18 121.806 193.638 121.826C193.221 121.831 192.816 121.697 192.5 121.449L192.392 121.506L192.17 121.625L160.218 138.385L156.759 140.199C156.264 140.428 155.715 140.544 155.16 140.535V139.222C155.722 139.218 156.273 139.087 156.765 138.839Z" fill="black"/>
<path d="M100.205 110.348V111.682C100.222 111.861 100.29 112.033 100.403 112.18C100.516 112.328 100.669 112.447 100.848 112.524L150.051 138.323L153.504 140.137C154.003 140.371 154.558 140.49 155.12 140.483V139.171C154.555 139.182 153.997 139.061 153.498 138.819L151.302 137.667L100.882 111.217C100.691 111.144 100.526 111.024 100.406 110.871C100.286 110.717 100.217 110.536 100.205 110.348Z" fill="#439D57"/>
<path opacity="0.2" d="M100.205 110.348V111.682C100.222 111.861 100.29 112.033 100.403 112.18C100.516 112.328 100.669 112.447 100.848 112.524L150.051 138.323L153.504 140.137C154.003 140.371 154.558 140.49 155.12 140.483V139.171C154.555 139.182 153.997 139.061 153.498 138.819L151.302 137.667L100.882 111.217C100.691 111.144 100.526 111.024 100.406 110.871C100.286 110.717 100.217 110.536 100.205 110.348Z" fill="black"/>
<path d="M100.205 122.41V123.744C100.222 123.923 100.29 124.095 100.403 124.242C100.516 124.39 100.669 124.509 100.848 124.586L150.073 150.39L153.527 152.204C154.026 152.439 154.581 152.558 155.143 152.55V151.238C154.578 151.249 154.02 151.128 153.521 150.886L151.325 149.734L100.882 123.279C100.691 123.206 100.526 123.086 100.406 122.933C100.286 122.779 100.217 122.598 100.205 122.41Z" fill="#439D57"/>
<path opacity="0.2" d="M100.205 122.41V123.744C100.222 123.923 100.29 124.095 100.403 124.242C100.516 124.39 100.669 124.509 100.848 124.586L150.073 150.39L153.527 152.204C154.026 152.439 154.581 152.558 155.143 152.55V151.238C154.578 151.249 154.02 151.128 153.521 150.886L151.325 149.734L100.882 123.279C100.691 123.206 100.526 123.086 100.406 122.933C100.286 122.779 100.217 122.598 100.205 122.41Z" fill="black"/>
<path d="M122.929 75.5208L117.706 83.9757L125.318 87.6553L130.86 80.1617L122.929 75.5208Z" fill="#FFA8A7"/>
<path d="M141.459 56.4765C138.558 56.0269 134.165 55.908 131.309 60.3577C128.453 64.8074 122.297 75.7895 122.297 75.7895C122.297 75.7895 125.893 80.017 131.099 80.787L139.605 68.5284L141.459 56.4765Z" fill="#439D57"/>
<path d="M134.604 160.024H128.106V170.127H134.604V160.024Z" fill="#FFA8A7"/>
<path d="M115.795 157.564L109.297 157.765L108.973 147.072L115.465 146.871L115.795 157.564Z" fill="#FFA8A7"/>
<path d="M128.107 167.212V166.37C127.486 166.613 126.041 171.621 123.464 173.755C121.416 175.455 118.622 177.414 117.911 179.306C117.171 181.275 121.803 182.365 123.714 182.055C125.939 181.698 129.796 180.277 130.764 178.954C131.731 177.631 132.186 175.693 132.971 174.727C133.756 173.76 135.571 172.659 135.998 171.559C136.231 170.944 135.952 169.6 135.628 168.458C135.327 167.424 134.997 166.267 134.604 166.365V167.006C134.132 167.481 132.829 167.951 131.355 168.003C130.405 168.044 128.101 167.874 128.107 167.212Z" fill="#263238"/>
<path d="M109.228 155.946C108.893 155.946 108.619 156.39 107.874 157.119C106.762 158.139 105.47 158.983 104.051 159.615C101.616 160.726 96.8991 162.426 94.7484 163.31C93.4114 163.858 93.474 165.326 94.8565 166.163C96.2391 167 99.5731 167.6 103.584 166.783C105.763 166.339 108.608 164.509 110.412 164.607C112.215 164.706 115.578 164.685 116.903 163.853C118.229 163.021 117.7 161.269 117.324 159.718C116.915 158.054 116.329 155.506 115.72 155.62V156.137C114.941 157.212 110.964 157.651 109.245 156.86L109.228 155.946Z" fill="#263238"/>
<path d="M160.776 98.5802C162.198 107.702 160.281 109.433 150.739 118.188C145.619 122.886 137.34 129.775 137.34 129.775C137.34 129.775 137.46 132.689 137.523 139.222C137.585 144.974 134.939 163.692 134.939 163.692C134.939 163.692 130.627 165.341 127.668 163.63C127.668 163.63 126.331 149.703 125.609 142.441C124.63 132.622 124.118 127.671 124.67 125.557C125.159 123.692 134.871 112.549 137.113 109.428L116.471 120.322C116.871 123.083 117.073 125.864 117.074 128.648C116.847 136.457 115.789 152.054 115.789 152.054C115.789 152.054 111.066 153.971 108.722 152.318C108.722 152.318 102.777 118.208 102.777 115.407C102.777 111.154 123.111 98.4562 126.963 95.5001C129.159 93.8153 131.605 91.991 131.605 91.991L160.776 98.5802Z" fill="#455A64"/>
<path d="M137.113 109.433C134.942 107.837 133.307 105.718 132.396 103.32C132.51 104.885 132.755 106.44 133.13 107.971C133.699 109.997 116.471 120.322 116.471 120.322L137.113 109.433Z" fill="#37474F"/>
<path d="M148.585 40.1631C149.747 35.6584 146.669 31.1508 141.71 30.0951C136.751 29.0394 131.788 31.8353 130.626 36.3399C129.464 40.8446 132.542 45.3522 137.501 46.4079C142.46 47.4636 147.422 44.6677 148.585 40.1631Z" fill="#263238"/>
<path d="M158.984 61.5513C158.984 61.5513 161.26 63.2465 161.26 68.6006V80.1615L160.935 99.6037C156.384 104.105 135.901 102.4 130.832 92.5803C130.832 92.5803 130.872 72.058 130.872 67.4584C130.872 62.8589 133.717 56.8898 141.454 56.4763L151.479 58.5952L158.984 61.5513Z" fill="#263238"/>
<path d="M155.547 44.2075C155.547 44.2075 154.051 50.5849 153.454 51.634C153.055 52.2807 152.397 52.7623 151.616 52.9777L151.718 48.4918L155.547 44.2075Z" fill="#263238"/>
<path d="M153.669 35.0702C154.189 35.0171 154.715 35.0719 155.207 35.2304C155.7 35.3888 156.147 35.6468 156.514 35.9849C157.743 37.127 157.055 40.7033 155.524 44.2073L152.708 44.5019L153.669 35.0702Z" fill="#263238"/>
<path d="M151.889 44.5022C152.457 44.8072 153.26 43.8252 153.954 43.1637C154.648 42.5022 156.924 41.6133 158.056 43.7684C159.188 45.9235 157.055 48.9002 155.268 49.4119C152.184 50.2905 151.718 48.492 151.718 48.492L151.485 58.5955C148.828 61.2932 139.741 60.6627 141.454 58.3268V55.2259C141.454 55.2259 138.66 55.6135 137.301 55.4223C135.025 55.1019 133.602 53.4791 132.914 51.2465C131.81 47.6651 131.389 44.7761 132.345 37.7321C133.375 30.011 143.258 29.9335 148.594 32.9827C153.931 36.0318 151.889 44.5022 151.889 44.5022Z" fill="#FFA8A7"/>
<path d="M144.032 46.2693H143.554C142.719 46.2693 141.919 45.9682 141.329 45.4323C140.739 44.8963 140.407 44.1694 140.407 43.4114C140.407 42.6534 140.739 41.9265 141.329 41.3905C141.919 40.8546 142.719 40.5535 143.554 40.5535H144.037C144.872 40.5535 145.672 40.8546 146.262 41.3905C146.852 41.9265 147.184 42.6534 147.184 43.4114C147.184 44.1694 146.852 44.8963 146.262 45.4323C145.672 45.9682 144.872 46.2693 144.037 46.2693H144.032ZM143.554 41.0341C142.86 41.0341 142.194 41.2846 141.703 41.7304C141.212 42.1762 140.937 42.7809 140.937 43.4114C140.937 44.0419 141.212 44.6466 141.703 45.0924C142.194 45.5382 142.86 45.7887 143.554 45.7887H144.037C144.731 45.7887 145.397 45.5382 145.888 45.0924C146.379 44.6466 146.655 44.0419 146.655 43.4114C146.655 42.7809 146.379 42.1762 145.888 41.7304C145.397 41.2846 144.731 41.0341 144.037 41.0341H143.554Z" fill="#263238"/>
<path d="M134.45 46.2693H133.966C133.132 46.2693 132.331 45.9682 131.741 45.4323C131.151 44.8963 130.82 44.1694 130.82 43.4114C130.82 42.6534 131.151 41.9265 131.741 41.3905C132.331 40.8546 133.132 40.5535 133.966 40.5535H134.45C135.284 40.5535 136.084 40.8546 136.675 41.3905C137.265 41.9265 137.596 42.6534 137.596 43.4114C137.596 44.1694 137.265 44.8963 136.675 45.4323C136.084 45.9682 135.284 46.2693 134.45 46.2693ZM133.966 41.0341C133.272 41.0341 132.606 41.2846 132.116 41.7304C131.625 42.1762 131.349 42.7809 131.349 43.4114C131.349 44.0419 131.625 44.6466 132.116 45.0924C132.606 45.5382 133.272 45.7887 133.966 45.7887H134.45C135.144 45.7887 135.81 45.5382 136.3 45.0924C136.791 44.6466 137.067 44.0419 137.067 43.4114C137.067 42.7809 136.791 42.1762 136.3 41.7304C135.81 41.2846 135.144 41.0341 134.45 41.0341H133.966Z" fill="#263238"/>
<path d="M140.441 42.8486C140.249 42.6118 139.999 42.4188 139.711 42.2852C139.422 42.1515 139.103 42.0807 138.78 42.0785C138.51 42.0539 138.238 42.0879 137.986 42.1778C137.733 42.2676 137.508 42.4108 137.329 42.5953L136.908 42.3059C137.138 42.0585 137.432 41.8664 137.763 41.7465C138.095 41.6266 138.454 41.5827 138.808 41.6186C139.218 41.6223 139.622 41.7147 139.985 41.8881C140.348 42.0616 140.66 42.3111 140.896 42.616L140.441 42.8486Z" fill="#263238"/>
<path d="M153.578 42.8279H146.887V43.3085H153.578V42.8279Z" fill="#263238"/>
<path d="M151.889 45.3652C152.173 45.3652 153.248 43.7424 153.954 43.1636C154.927 42.3574 153.669 35.0704 153.669 35.0704C153.669 35.0704 154.608 33.2564 152.731 31.3856C151.399 30.0522 149.169 29.9024 145.363 29.3597C143.366 29.0755 140.339 28.5639 138.342 28.2279C135.964 27.8248 133.989 27.401 132.311 28.7447C131.652 29.2635 131.186 29.9549 130.977 30.7239C130.769 31.4929 130.827 32.3018 131.145 33.0394C131.626 33.9593 132.483 34.6729 133.534 35.0291C133.534 35.0291 134.57 35.8663 138.183 36.2642C141.795 36.6622 147.422 36.1919 148.19 36.0937C149.237 35.9645 149.459 36.8844 150.028 39.4064C150.523 41.6028 150.95 45.3497 151.889 45.3652Z" fill="#263238"/>
<path d="M153.664 35.6595L157.078 33.9902C156.968 33.7818 156.814 33.5956 156.623 33.4429C156.433 33.2902 156.21 33.1742 155.968 33.1017C155.727 33.0293 155.472 33.002 155.219 33.0215C154.966 33.0409 154.719 33.1068 154.495 33.215C154.038 33.4487 153.698 33.8323 153.544 34.287C153.389 34.7417 153.432 35.2329 153.664 35.6595Z" fill="#263238"/>
<path d="M141.46 55.2516C141.46 55.2516 146.524 54.3265 148.288 53.4738C149.328 52.9801 150.181 52.2129 150.734 51.2722C150.466 52.2092 149.994 53.0879 149.346 53.8562C148.049 55.3601 141.454 56.4661 141.454 56.4661L141.46 55.2516Z" fill="#F28F8F"/>
<path d="M142.677 43.3546C142.685 43.5361 142.751 43.7114 142.868 43.8588C142.985 44.0062 143.147 44.1191 143.334 44.1835C143.521 44.2478 143.725 44.2607 143.92 44.2206C144.115 44.1805 144.292 44.0892 144.431 43.958C144.569 43.8268 144.661 43.6615 144.697 43.4828C144.733 43.3041 144.709 43.1198 144.63 42.953C144.551 42.7861 144.42 42.6441 144.253 42.5446C144.086 42.445 143.89 42.3924 143.69 42.3933C143.554 42.396 143.42 42.423 143.295 42.4728C143.171 42.5225 143.058 42.5941 142.964 42.6834C142.87 42.7726 142.796 42.8779 142.747 42.993C142.698 43.1082 142.674 43.2311 142.677 43.3546Z" fill="#263238"/>
<path d="M144.304 39.5406L146.478 40.6259C146.624 40.3571 146.654 40.0479 146.56 39.7604C146.466 39.4728 146.256 39.2282 145.971 39.0754C145.829 39.0039 145.672 38.9592 145.51 38.9439C145.348 38.9286 145.185 38.9431 145.029 38.9865C144.874 39.0299 144.729 39.1014 144.605 39.1965C144.48 39.2917 144.378 39.4087 144.304 39.5406Z" fill="#263238"/>
<path d="M141.92 49.7168L139.605 50.5075C139.655 50.6487 139.735 50.7793 139.842 50.8915C139.949 51.0037 140.08 51.0951 140.226 51.1602C140.373 51.2254 140.533 51.263 140.696 51.2707C140.859 51.2784 141.022 51.2561 141.175 51.2052C141.487 51.0929 141.739 50.8751 141.878 50.5975C142.017 50.32 142.032 50.0043 141.92 49.7168Z" fill="#F28F8F"/>
<path d="M133.37 40.3468L135.35 38.967C135.257 38.8465 135.139 38.7443 135.003 38.6664C134.866 38.5886 134.713 38.5368 134.553 38.5141C134.394 38.4914 134.231 38.4983 134.074 38.5344C133.918 38.5705 133.771 38.635 133.643 38.7241C133.376 38.9108 133.199 39.1836 133.148 39.4858C133.097 39.788 133.177 40.0964 133.37 40.3468Z" fill="#263238"/>
<path d="M134.239 43.0912C134.247 43.2726 134.314 43.448 134.43 43.5954C134.547 43.7428 134.709 43.8557 134.896 43.92C135.083 43.9844 135.287 43.9973 135.482 43.9572C135.677 43.9171 135.855 43.8258 135.993 43.6946C136.131 43.5634 136.224 43.3981 136.259 43.2194C136.295 43.0406 136.272 42.8564 136.193 42.6895C136.114 42.5227 135.982 42.3807 135.815 42.2811C135.648 42.1816 135.452 42.129 135.252 42.1299C135.116 42.1326 134.982 42.1596 134.857 42.2093C134.733 42.2591 134.62 42.3307 134.526 42.4199C134.432 42.5092 134.359 42.6144 134.309 42.7296C134.26 42.8448 134.236 42.9676 134.239 43.0912Z" fill="#263238"/>
<path d="M139.252 42.3523L139.138 47.939L135.503 47.2103L139.252 42.3523Z" fill="#F28F8F"/>
<path d="M133.039 88.7976V89.3144C133.039 89.5786 132.962 89.8381 132.816 90.0667C132.67 90.2954 132.46 90.4851 132.208 90.6167L116.408 98.8856C116.157 99.0176 115.871 99.0871 115.581 99.0871C115.29 99.0871 115.004 99.0176 114.753 98.8856L85.7647 83.6864C85.5125 83.5547 85.3029 83.365 85.1571 83.1364C85.0113 82.9077 84.9343 82.6483 84.934 82.384V82.0171L115.578 98.0845L133.039 88.7976Z" fill="#439D57"/>
<path opacity="0.6" d="M133.039 88.7976V89.3144C133.039 89.5786 132.962 89.8381 132.816 90.0667C132.67 90.2954 132.46 90.4851 132.208 90.6167L116.408 98.8856C116.157 99.0176 115.871 99.0871 115.581 99.0871C115.29 99.0871 115.004 99.0176 114.753 98.8856L85.7647 83.6864C85.5125 83.5547 85.3029 83.365 85.1571 83.1364C85.0113 82.9077 84.9343 82.6483 84.934 82.384V82.0171L115.578 98.0845L133.039 88.7976Z" fill="black"/>
<path d="M84.9518 82.0222L102.14 73.0092C102.29 72.9302 102.461 72.8887 102.635 72.8887C102.809 72.8887 102.979 72.9302 103.13 73.0092L132.943 88.6477C132.976 88.6655 133.003 88.6909 133.022 88.7212C133.041 88.7516 133.051 88.7859 133.051 88.8208C133.051 88.8557 133.041 88.89 133.022 88.9204C133.003 88.9507 132.976 88.976 132.943 88.9939L115.596 98.0897L84.9518 82.0222Z" fill="#439D57"/>
<path opacity="0.5" d="M84.9518 82.0222L102.14 73.0092C102.29 72.9302 102.461 72.8887 102.635 72.8887C102.809 72.8887 102.979 72.9302 103.13 73.0092L132.943 88.6477C132.976 88.6655 133.003 88.6909 133.022 88.7212C133.041 88.7516 133.051 88.7859 133.051 88.8208C133.051 88.8557 133.041 88.89 133.022 88.9204C133.003 88.9507 132.976 88.976 132.943 88.9939L115.596 98.0897L84.9518 82.0222Z" fill="black"/>
<path d="M115.737 96.7666L125.005 91.9087L97.9004 77.6965L88.5809 82.5287L115.737 96.7666Z" fill="#263238"/>
<path d="M120.295 83.2573L120.124 83.3452L115.578 85.7276L107.499 81.4898L107.334 81.402L112.045 78.9316L120.295 83.2573Z" fill="#263238"/>
<path d="M120.124 83.3452L115.578 85.7277L107.499 81.4899L112.044 79.1074L120.124 83.3452Z" fill="#263238"/>
<path opacity="0.7" d="M115.578 98.0897V99.0923C115.288 99.092 115.004 99.0225 114.753 98.8907L85.7647 83.6915C85.5125 83.5598 85.3029 83.3701 85.1571 83.1415C85.0113 82.9129 84.9343 82.6534 84.934 82.3891V82.0222L115.578 98.0897Z" fill="black"/>
<path d="M115.106 98.3117C114.83 98.4114 114.533 98.4525 114.237 98.4319C113.941 98.4113 113.655 98.3295 113.399 98.1928L84.5417 83.0608C84.2911 82.9301 84.0753 82.7507 83.9101 82.5354C83.7448 82.32 83.6341 82.0741 83.5859 81.8153L80.4282 64.6987C80.4103 64.6031 80.4008 64.5063 80.3998 64.4093C80.3963 63.9337 80.601 63.4764 80.9687 63.1379L110.958 78.8695C111.148 78.9645 111.313 79.0968 111.44 79.2568C111.567 79.4169 111.653 79.6005 111.692 79.7946L115.106 98.3117Z" fill="#439D57"/>
<path opacity="0.5" d="M115.106 98.3117C114.83 98.4114 114.533 98.4525 114.237 98.4319C113.941 98.4113 113.655 98.3295 113.399 98.1928L84.5417 83.0608C84.2911 82.9301 84.0753 82.7507 83.9101 82.5354C83.7448 82.32 83.6341 82.0741 83.5859 81.8153L80.4282 64.6987C80.4103 64.6031 80.4008 64.5063 80.3998 64.4093C80.3963 63.9337 80.601 63.4764 80.9687 63.1379L110.958 78.8695C111.148 78.9645 111.313 79.0968 111.44 79.2568C111.567 79.4169 111.653 79.6005 111.692 79.7946L115.106 98.3117Z" fill="black"/>
<path d="M115.578 98.0892L115.384 98.1925C115.297 98.2384 115.205 98.2782 115.111 98.3114L111.698 79.7943C111.662 79.6026 111.58 79.4204 111.458 79.2605C111.336 79.1007 111.177 78.9671 110.992 78.8692L81.0026 63.1377C81.1217 63.0311 81.2556 62.939 81.4008 62.8638L111.453 78.6212C111.638 78.719 111.797 78.8526 111.919 79.0125C112.041 79.1723 112.123 79.3545 112.158 79.5462L115.578 98.0892Z" fill="#E0E0E0"/>
<path d="M98.8567 82.513C98.6462 81.3709 97.3433 79.8463 95.9494 79.1176C94.5554 78.3889 93.5939 78.7197 93.8101 79.867C94.0263 81.0143 95.3235 82.5337 96.7174 83.2676C98.1114 84.0014 99.0729 83.6603 98.8567 82.513Z" fill="#439D57"/>
<path d="M104.768 93.6553C104.708 92.9137 104.55 92.1814 104.296 91.4743C103.852 90.2082 102.532 85.3295 99.5169 84.5957C99.1583 84.4978 98.7777 84.4871 98.4131 84.5647C97.5767 84.7714 97.1955 85.5621 97.0305 86.2701C96.8769 87.3163 96.8769 88.3764 97.0305 89.4226C96.567 88.941 96.0238 88.5278 95.4204 88.1978C94.8854 87.8319 94.2404 87.6228 93.5713 87.5983C93.4782 87.5941 93.3854 87.6108 93.3011 87.6469C93.2168 87.6829 93.1435 87.7372 93.0877 87.805C92.9796 87.9859 93.0877 88.2133 93.2584 88.3735C93.5599 88.7043 93.9297 88.9833 94.2313 89.3141C94.4676 89.6025 94.6861 89.9028 94.8856 90.2133C95.2668 90.7715 95.6935 91.2986 96.1202 91.8309C96.94 92.937 97.9686 93.9028 99.1584 94.6837C100.527 95.5251 102.08 96.0875 103.71 96.3323C105.912 96.5804 108.051 96.5494 109.439 96.1101L104.768 93.6553Z" fill="#FFA8A7"/>
<path d="M158.381 61.7015C156.349 60.7506 153.379 64.5181 154.324 68.4561C155.268 72.3942 159.922 86.2394 159.922 86.2394C159.922 86.2394 138.9 87.9448 137.113 88.1464C135.867 88.2808 134.473 87.7071 133.318 87.3609C131.748 86.8854 130.16 86.5546 128.613 86.0378C128.344 85.9255 128.05 85.869 127.754 85.8725C127.605 85.8783 127.462 85.9286 127.348 86.0155C127.234 86.1024 127.155 86.221 127.122 86.3531C127.115 86.5148 127.16 86.6749 127.253 86.813C127.75 87.7327 128.496 88.5224 129.421 89.1077C129.869 89.3482 130.295 89.6213 130.695 89.9242C130.94 90.1464 131.48 90.7614 131.264 91.0974L122.912 95.4644C122.912 95.4644 124.835 96.9838 131.799 95.2111C134.309 94.6146 136.759 93.8244 139.121 92.8493C139.121 92.8493 163.894 93.7847 168.371 92.5547C169.953 92.1155 170.522 91.0974 169.452 86.4668C168.229 81.1023 164.719 71.3192 163.922 68.7352C162.175 63.1382 161.76 63.2674 158.381 61.7015Z" fill="#FFA8A7"/>
<path d="M157.334 60.9004C157.334 60.9004 160.69 61.7583 162.135 63.4844C163.581 65.2105 169.156 81.9085 169.156 81.9085C167.699 83.0128 165.994 83.8159 164.161 84.2621C162.328 84.7083 160.41 84.7869 158.54 84.4925C158.54 84.4925 154.056 72.9419 153.578 69.8566C152.731 65.0762 155.302 61.3138 157.334 60.9004Z" fill="#439D57"/>
<path d="M139.218 72.1048C138.945 70.8128 139.833 70.1151 141.204 70.5544C141.93 70.8252 142.575 71.2468 143.089 71.7853C143.603 72.3238 143.971 72.9642 144.163 73.6552C144.436 74.9627 139.486 73.3864 139.218 72.1048Z" fill="#439D57"/>
<path d="M148.6 76.1303L144.566 73.7995C144.771 74.7918 143.298 74.6522 141.972 74.2336C140.646 73.815 139.025 72.9674 138.814 71.9752L135.298 71.9338C134.974 71.9338 134.968 72.3163 135.298 72.6315C136.169 73.5153 138.194 75.0812 142.45 76.43C146.706 77.7789 148.338 77.3603 148.953 76.9468C149.152 76.7918 148.97 76.3422 148.6 76.1303Z" fill="#439D57"/>
</svg>
